# xmcd
#
# Track frame offsets:
#	150
#	12410
#	27790
#	44933
#	61338
#	73052
#	86267
#	102710
#	118803
#	131848
#	144615
#	160805
#	176133
#	192088
#
# Disc length: 2742
#
# Revision: 1
# Processed by: cddbd v1.5.1PL0 Copyright (c) Steve Scherf et al.
# Submitted via: audiograbber 1.83.01
# Normalized: r0:DSETVAR1
#
DISCID=d10ab40e
DTITLE=Various Artist - Asphalthelden Folge 3
DYEAR=1997
DGENRE=Country
TTITLE0=Jonny Hill - Wenn ich nur fliegen könnte
TTITLE1=Gunter Gabriel - Track Stop, Tom Astor und ich
TTITLE2=Frank Baum and Country Green - Das Lied der Straße singen 18 Räder
TTITLE3=Iris McCollins - Spürst Du das Fieber
TTITLE4=Canyon - Trucker, Asphalt Cowboy
TTITLE5=Dagmar(The Lady of Country) - Wahre Männer
TTITLE6=Greyhounds - Highway Queen
TTITLE7=Linder Feller - Andre Mütter haben auch ein schönes Kind
TTITLE8=Mike Herman booze Company - Verliebt in Country
TTITLE9=Country Rose and Ralf Paulsen - Hallo Country Rose
TTITLE10=Country Roads - Großstadt-Cowboy
TTITLE11=Larry Schuba and Western Union - Countrymusicfieber
TTITLE12=Tex Haper - Auch ein Trucker hat ein Herz
TTITLE13=Joe Hodgkins Boss Band - Portland daheim
EXTD=
EXTT0=
EXTT1=
EXTT2=
EXTT3=
EXTT4=
EXTT5=
EXTT6=
EXTT7=
EXTT8=
EXTT9=
EXTT10=
EXTT11=
EXTT12=
EXTT13=
PLAYORDER=
